<?xml version="1.0" encoding="UTF-8" standalone="no"?>
<!-- Created with Inkscape (http://www.inkscape.org/) -->

<svg
   xmlns:dc="http://purl.org/dc/elements/1.1/"
   xmlns:cc="http://creativecommons.org/ns#"
   xmlns:rdf="http://www.w3.org/1999/02/22-rdf-syntax-ns#"
   xmlns:svg="http://www.w3.org/2000/svg"
   xmlns="http://www.w3.org/2000/svg"
   xmlns:sodipodi="http://sodipodi.sourceforge.net/DTD/sodipodi-0.dtd"
   xmlns:inkscape="http://www.inkscape.org/namespaces/inkscape"
   width="1.5982875mm"
   height="21.933584mm"
   viewBox="0 0 1.5982874 21.933585"
   version="1.1"
   id="svg937"
   inkscape:version="0.92.5 (2060ec1f9f, 2020-04-08)"
   sodipodi:docname="thumb_stroke.svg">
  <defs
     id="defs931" />
  <sodipodi:namedview
     id="base"
     pagecolor="#ffffff"
     bordercolor="#666666"
     borderopacity="1.0"
     inkscape:pageopacity="0.0"
     inkscape:pageshadow="2"
     inkscape:zoom="7.9195959"
     inkscape:cx="8.8472324"
     inkscape:cy="50.058465"
     inkscape:document-units="mm"
     inkscape:current-layer="layer1"
     showgrid="false"
     inkscape:window-width="1848"
     inkscape:window-height="1016"
     inkscape:window-x="72"
     inkscape:window-y="27"
     inkscape:window-maximized="1" />
  <metadata
     id="metadata934">
    <rdf:RDF>
      <cc:Work
         rdf:about="">
        <dc:format>image/svg+xml</dc:format>
        <dc:type
           rdf:resource="http://purl.org/dc/dcmitype/StillImage" />
        <dc:title />
      </cc:Work>
    </rdf:RDF>
  </metadata>
  <g
     inkscape:label="Layer 1"
     inkscape:groupmode="layer"
     id="layer1"
     transform="translate(-23.110796,-1.1818911)">
    <path
       style="font-style:normal;font-weight:normal;font-size:40px;line-height:1.25;font-family:sans-serif;letter-spacing:0px;word-spacing:0px;fill:#ac9d93;fill-opacity:1;stroke:none;stroke-width:0.39687496"
       id="path22-5"
       d="m 23.647458,2.3566461 c -0.1905,0.349245 -0.523875,0.889005 -0.523875,1.476375 0,0.5715 0.238125,0.984255 0.523875,1.524 0.12705,0.20637 0.381,0.55563 0.381,1.111245 0,0.55563 -0.253995,0.92076 -0.381,1.12713 -0.28575,0.539745 -0.523875,0.9525 -0.523875,1.5398693 0,0.587385 0.317505,1.1112596 0.523875,1.4763746 0.238125,0.44451 0.381,0.793755 0.381,1.158885 0,0.365115 -0.1428,0.714375 -0.381,1.15887 -0.1905,0.36513 -0.523875,0.889005 -0.523875,1.476375 0,0.58737 0.238125,1.000125 0.523875,1.524 0.12705,0.20637 0.389865,0.62784 0.381,1.12713 -0.009,0.499275 -0.16851,0.71352 -0.383385,1.11057 -0.214875,0.39705 -0.53268,0.958965 -0.53427,1.53732 -0.0015,0.57837 0.223335,0.931215 0.508725,1.492605 0.285405,0.561375 0.389985,0.62331 0.406095,1.18479 l 0.68346,0.73329 c -0.10185,-0.99597 -0.32493,-0.94173 -0.539115,-1.45752 -0.21417,-0.515775 -0.371745,-0.72711 -0.379635,-1.156305 -0.0075,-0.429195 0.195165,-0.76587 0.396045,-1.187535 0.1599,-0.335655 0.5034,-0.82224 0.512265,-1.463475 0.009,-0.69141 -0.317505,-1.07949 -0.523875,-1.46049 -0.238125,-0.44451 -0.381,-0.809625 -0.381,-1.190625 0,-0.381 0.253995,-0.93663 0.381,-1.158885 0.238125,-0.39687 0.523875,-0.904875 0.523875,-1.476375 0,-0.5715 -0.28575,-1.07949 -0.523875,-1.476375 -0.12705,-0.22224 -0.381,-0.77787 -0.381,-1.1588696 0,-0.381 0.1428,-0.74613 0.381,-1.1906243 0.20637,-0.39687 0.523875,-0.77787 0.523875,-1.476375 0,-0.68262 -0.317505,-1.079505 -0.523875,-1.44462 -0.238125,-0.44451 -0.381,-0.809625 -0.381,-1.190625 0,-0.396885 0.253995,-0.93663 0.381,-1.158885 0.238125,-0.41274 0.523875,-0.920745 0.523875,-1.492245 l -0.670185,-0.793755 c 0,0.381 -0.1428,0.73026 -0.381,1.174755 z"
       inkscape:connector-curvature="0"
       sodipodi:nodetypes="cscscscscsczzzzcczzsscscscscscscccc"
       inkscape:export-xdpi="96"
       inkscape:export-ydpi="96" />
  </g>
</svg>
